<?xml version="1.0" encoding="UTF-8"?>
<svg version="1.1" xmlns="http://www.w3.org/2000/svg" width="1024" height="1024">
<path d="M0 0 C5.16780822 0.00459647 10.33560393 -0.00249427 15.5034095 -0.00795984 C25.58428165 -0.01678025 35.66512376 -0.01496494 45.745997 -0.00913456 C53.95106189 -0.00458855 62.15611845 -0.00401776 70.36118424 -0.00618219 C72.12344349 -0.00664189 72.12344349 -0.00664189 73.92130395 -0.00711088 C76.30915626 -0.00775043 78.69700856 -0.00839886 81.08486087 -0.00905606 C103.39404009 -0.01473788 125.70320279 -0.0082355 148.0123793 0.00254467 C167.08694788 0.01147704 186.16149211 0.00992653 205.23606026 0.00070715 C227.47248561 -0.01003568 249.70889654 -0.01418754 271.94532412 -0.00806832 C274.32392422 -0.00743133 276.70252432 -0.00680259 279.08112442 -0.00618219 C280.83586566 -0.00571937 280.83586566 -0.00571937 282.62605621 -0.00524719 C290.80521882 -0.00353215 298.98437215 -0.00640943 307.16353333 -0.0111413 C317.1542292 -0.01679503 327.14489372 -0.01514058 337.13558608 -0.00457981 C342.21699614 0.0006174 347.29835424 0.00283758 352.37976372 -0.00387812 C402.19367693 -0.06400935 453.98766578 0.41308289 499.01901925 24.32394934 C500.62025008 25.17251771 502.23285805 25.9995315 503.84665596 26.82394934 C510.63813082 30.36900288 516.71755044 34.60000526 522.78806221 39.26144934 C523.59888253 39.87762121 524.40970284 40.49379309 525.24509346 41.12863684 C536.32105853 49.75321707 546.26195243 59.08277207 554.78806221 70.26144934 C555.52540596 71.19473059 556.26274971 72.12801184 557.02243721 73.08957434 C590.07504662 115.71604302 596.97419077 168.47300644 596.92177498 220.93498755 C596.92364859 222.74476709 596.92595145 224.55454623 596.92864031 226.36432475 C596.93469706 231.2843658 596.93463202 236.20438971 596.93344593 241.12443364 C596.93324035 246.45192271 596.93877561 251.7794065 596.9435035 257.10689306 C596.95177735 267.52561871 596.95455687 277.9443387 596.95511588 288.36306737 C596.95559268 296.84208091 596.95765557 305.32109261 596.9608165 313.80010557 C596.96961484 337.89536812 596.97423727 361.99062623 596.97348603 386.08589039 C596.97342609 388.03061311 596.97342609 388.03061311 596.97336495 390.01462317 C596.97330363 391.96174987 596.97330363 391.96174987 596.97324107 393.94821247 C596.97283503 414.963095 596.9823962 435.97795958 596.99650332 456.99283693 C597.01090922 478.62537548 597.01777116 500.25790529 597.01690954 521.89044875 C597.01657898 534.013389 597.0192637 546.13631045 597.03008759 558.25924635 C597.03924833 568.58479093 597.04132259 578.91030817 597.03457817 589.23585508 C597.03134059 594.49110848 597.03115457 599.74630959 597.03993142 605.00155783 C597.14743213 673.85227203 590.87688674 739.477334 540.47556221 791.01144934 C529.05077195 802.32366276 515.83091056 811.5179175 501.78806221 819.26144934 C501.2036335 819.59451086 500.61920479 819.92757238 500.01706612 820.27072668 C463.10318847 841.15366711 418.72778975 844.4364724 377.19008553 844.39516211 C375.37633155 844.39703525 373.56257797 844.39933793 371.74882501 844.40202743 C366.81319244 844.40808991 361.87757694 844.40801845 356.9419415 844.40683305 C351.59945725 844.40662762 346.25697828 844.41216135 340.91449654 844.41689062 C330.4645532 844.42516769 320.0146155 844.42794414 309.56466915 844.428503 C301.06083286 844.42897965 292.55699841 844.43104183 284.05316269 844.43420362 C259.89158881 844.44300292 235.73001935 844.44762425 211.56844386 844.44687315 C210.26814692 844.44683319 208.96784998 844.44679324 207.62815011 844.44675207 C206.32624721 844.44671119 205.02434431 844.44667031 203.68298981 844.44662819 C182.60593616 844.44622214 161.52890041 844.4557832 140.45185193 844.46989044 C118.75945921 844.48429379 97.06707521 844.49115842 75.3746776 844.49029666 C63.21654281 844.48996601 51.05842678 844.49265482 38.90029633 844.50347471 C28.54468874 844.51263208 18.18910841 844.51471243 7.8334985 844.50796529 C2.56217388 844.50472602 -2.7090986 844.50454805 -7.98041809 844.51331854 C-73.23961246 844.61485349 -138.72460111 839.88427097 -188.21193779 792.26144934 C-188.7128997 791.78626867 -189.21386161 791.31108801 -189.73000419 790.82150793 C-235.22676192 747.51012434 -245.45960942 688.78772737 -247.11472929 628.55403018 C-247.45405385 614.76353899 -247.35227474 600.96104786 -247.34266245 587.16749537 C-247.34036496 582.27240008 -247.34390921 577.37730809 -247.34664237 572.4822135 C-247.35105315 562.93314975 -247.35014472 553.38409393 -247.34722973 543.83502989 C-247.34495722 536.06419056 -247.34467113 528.29335343 -247.34575355 520.52251387 C-247.34590678 519.4100818 -247.34606002 518.29764973 -247.34621789 517.1515076 C-247.34653767 514.8905603 -247.34686188 512.629613 -247.34719048 510.3686657 C-247.35003149 489.24470036 -247.34677991 468.12073937 -247.34139012 446.99677474 C-247.33692272 428.92947985 -247.33770017 410.86219138 -247.34230888 392.7948966 C-247.34767803 371.73706871 -247.34975758 350.67924463 -247.34669662 329.62141615 C-247.34637812 327.36980045 -247.34606374 325.11818475 -247.34575355 322.86656904 C-247.34559928 321.75916327 -247.345445 320.65175749 -247.34528605 319.51079397 C-247.34442795 311.76208913 -247.34586842 304.01338675 -247.3482331 296.26468229 C-247.35105737 286.80340231 -247.35023799 277.34213061 -247.34495236 267.88085156 C-247.34235055 263.06729907 -247.34124944 258.2537603 -247.34460151 253.44020796 C-247.39136991 179.9810908 -244.14611738 108.76679822 -189.83693779 53.57394934 C-138.81276945 2.99229547 -67.59236235 -0.08927248 0 0 Z " fill="#FBD107" transform="translate(337.2119377851486,99.73855066299438)"/>
<path d="M0 0 C-1.34578125 0.51046875 -1.34578125 0.51046875 -2.71875 1.03125 C-22.85426375 8.79499744 -40.6395213 18.82259131 -57 33 C-57.84046875 33.71800781 -58.6809375 34.43601563 -59.546875 35.17578125 C-97.26616275 68.15087287 -114.24788587 115.76027821 -117.78295147 164.68278265 C-118.68993187 178.54443448 -119.14755368 192.36357687 -119.12698364 206.2532959 C-119.12813986 207.99284443 -119.12973072 209.73239272 -119.13171089 211.47194052 C-119.13583545 216.18821058 -119.13384509 220.90446008 -119.13072467 225.62073016 C-119.12844241 230.73192141 -119.13196413 235.84310936 -119.13470459 240.95429993 C-119.13913125 250.94193784 -119.13819968 260.92956821 -119.13529195 270.91720641 C-119.13302567 279.04060466 -119.13273069 287.16400081 -119.13381577 295.28739929 C-119.133969 296.44734212 -119.13412223 297.60728494 -119.13428011 298.80237755 C-119.13459986 301.15940925 -119.13492407 303.51644094 -119.1352527 305.87347263 C-119.1380984 327.93094695 -119.13483476 349.98841711 -119.12945233 372.04589075 C-119.12498512 390.93700868 -119.12576131 409.82812046 -119.13037109 428.71923828 C-119.13573295 450.70241411 -119.13782379 472.68558629 -119.13475883 494.66876268 C-119.13444031 497.01670869 -119.13412594 499.3646547 -119.13381577 501.71260071 C-119.13366149 502.86757713 -119.13350721 504.02255356 -119.13334826 505.21252927 C-119.13248794 513.31809394 -119.13393552 521.42365628 -119.13629532 529.52922058 C-119.13911143 539.41872283 -119.13831702 549.30821715 -119.13301457 559.1977185 C-119.13040191 564.23515247 -119.12933082 569.27257325 -119.13266373 574.3100071 C-119.13567734 578.9350885 -119.13395101 583.56014471 -119.12868617 588.18522388 C-119.12758334 589.84445923 -119.12810471 591.50369677 -119.13056196 593.16293067 C-119.1427446 602.08440189 -118.97624276 610.97840703 -118.55456352 619.89083099 C-118.51581856 620.74082173 -118.47707359 621.59081248 -118.43715454 622.46656051 C-118.39583439 623.26170605 -118.35451425 624.05685158 -118.31194198 624.87609243 C-118.27609249 625.5768582 -118.24024299 626.27762397 -118.20330714 626.99962506 C-117.99233054 629.07546121 -117.55411482 630.99083776 -117 633 C-99.09231208 629.01583683 -81.45788073 624.67742138 -64 619 C-62.64294673 618.56559991 -61.28567424 618.13188426 -59.92822266 617.69873047 C-16.42215005 603.79272837 24.72711569 585.71175845 62 559 C62.98057373 558.29762207 62.98057373 558.29762207 63.98095703 557.58105469 C71.82911041 551.93592548 79.54380778 546.15744645 87 540 C88.00417969 539.18144531 89.00835937 538.36289062 90.04296875 537.51953125 C126.35130149 507.62241935 158.35563295 460.95971044 163.59765625 413.14453125 C163.76091587 411.3679317 163.91541426 409.59051166 164.0625 407.8125 C164.14701416 406.84070801 164.23152832 405.86891602 164.31860352 404.86767578 C165.10291324 395.141018 165.3645713 385.39969909 165.48266602 375.64379883 C165.72836987 363.92822801 167.96372862 353.34585638 172.6875 342.625 C173.20860352 341.41928345 173.20860352 341.41928345 173.74023438 340.18920898 C179.05670772 328.09183733 185.3407826 316.78988611 193 306 C194.04800781 304.52080078 194.04800781 304.52080078 195.1171875 303.01171875 C200.59057015 295.50286106 206.607066 288.71783647 213 282 C213.66644531 281.26910156 214.33289063 280.53820312 215.01953125 279.78515625 C238.32092422 255.01209636 276.02602361 243.51248005 308.54150391 238.390625 C310.65016942 238.05558381 312.75350903 237.68731754 314.85546875 237.3125 C345.77866811 232.45651231 381.49461983 234.87651626 408.5625 251.75 C425.24388299 264.00522431 434.10810474 279.0554527 439 299 C439.19609863 299.79196777 439.39219727 300.58393555 439.59423828 301.39990234 C444.86788125 323.63716874 445.1425014 346.92935704 439 369 C438.68651611 370.14686279 438.68651611 370.14686279 438.36669922 371.31689453 C433.67966025 387.94096159 425.97226532 402.64629446 415 416 C414.55817383 416.55252441 414.11634766 417.10504883 413.66113281 417.67431641 C402.40791106 431.7193082 389.32813699 442.62772122 374 452 C373.36771484 452.38833008 372.73542969 452.77666016 372.08398438 453.17675781 C348.86966658 467.21033787 322.97150807 476.98320311 297.90974426 487.18266296 C224.04246839 517.19798781 224.04246839 517.19798781 157 560 C155.56333984 561.10408203 155.56333984 561.10408203 154.09765625 562.23046875 C151.69843093 564.11640761 149.34623182 566.04864053 147 568 C146.06671875 568.74894531 145.1334375 569.49789062 144.171875 570.26953125 C135.69418039 577.19780869 127.93888939 584.84544583 120.1875 592.5625 C119.38407669 593.35815872 119.38407669 593.35815872 118.56442261 594.16989136 C111.57244578 601.10858935 105.0957556 608.24372325 99 616 C98.14240126 617.06027954 97.28442621 618.12025504 96.42578125 619.1796875 C68.53123523 654.75683492 46.90322472 694.67360799 42.8125 740.125 C42.72528687 741.06500854 42.63807373 742.00501709 42.54821777 742.97351074 C40.60549053 764.31476922 40.58173591 785.59131365 41 807 C43.04059478 807.31942441 45.08257224 807.63001362 47.125 807.9375 C48.26195312 808.11152344 49.39890625 808.28554688 50.5703125 808.46484375 C62.84067746 810.06925626 75.11254422 810.14576019 87.4606781 810.13371277 C89.29603038 810.13558449 91.13138226 810.13788663 92.96673352 810.14057809 C97.975805 810.14665797 102.98485971 810.14656702 107.99393404 810.14538372 C113.40999567 810.14517874 118.82605205 810.15070777 124.24211121 810.15544128 C134.84118456 810.16372781 145.44025236 810.16649523 156.03932869 810.16705366 C164.66151007 810.16752984 173.28368963 810.16958966 181.90587044 810.17275429 C206.38718471 810.18155596 230.86849461 810.18617451 255.34981047 810.18542381 C256.66805222 810.18538386 257.98629396 810.1853439 259.34448242 810.18530273 C261.32427846 810.18524141 261.32427846 810.18524141 263.34407038 810.18517885 C284.71891977 810.18467764 306.09375034 810.19433628 327.46859478 810.2084411 C349.45128154 810.22283175 371.43395972 810.22970978 393.41665131 810.22884732 C405.74402204 810.22851625 418.07137429 810.2312239 430.39874077 810.24202538 C440.89729537 810.2511659 451.3958231 810.25327666 461.89437997 810.24651595 C467.24202408 810.2432684 472.58961676 810.24312959 477.93725586 810.2518692 C508.02878019 810.40858406 508.02878019 810.40858406 538 808 C538.87592737 807.89054027 539.75185474 807.78108054 540.65432537 807.66830385 C574.40986438 803.37751798 605.81492767 792.87674145 633 772 C633.81984375 771.40316406 634.6396875 770.80632813 635.484375 770.19140625 C672.42327574 742.36327465 693.41973238 698.99088165 700 654 C703.23179111 630.01164461 703.43786468 606.1454484 703.39217401 581.9811368 C703.3852813 576.56862094 703.39591442 571.15613201 703.40411377 565.74362183 C703.41734618 555.18494847 703.4146207 544.62633964 703.40587585 534.06766391 C703.39905792 525.47455749 703.39820018 516.88146895 703.4014473 508.2883606 C703.401907 507.05814936 703.40236669 505.82793812 703.40284032 504.56044775 C703.40379965 502.06009697 703.40477229 499.5597462 703.4057581 497.05939543 C703.41428125 473.69817846 703.40452639 450.336997 703.388357 426.97578585 C703.37495664 406.9978282 703.3772856 387.01995003 703.39111328 367.04199219 C703.40722372 343.75556168 703.41345757 320.46916217 703.40427649 297.18272686 C703.403321 294.69236438 703.40237788 292.20200189 703.4014473 289.7116394 C703.40075306 287.87441735 703.40075306 287.87441735 703.40004479 286.00007969 C703.39747124 277.43267282 703.4017903 268.86528587 703.40888596 260.29788208 C703.41736221 249.83508544 703.41489368 239.37235619 703.39904372 228.90956712 C703.39124246 223.58712327 703.38792733 218.26479111 703.39799118 212.94234848 C703.50496889 151.099617 697.60580549 89.39832343 652 43 C651.12988281 42.13117188 650.25976562 41.26234375 649.36328125 40.3671875 C648.05489663 39.05664026 646.75708863 37.73419646 645.5078125 36.3671875 C630.49789246 20.17004214 608.3393329 8.87456663 588 1 C595.14439576 -1.38146525 605.47586587 5.59625339 612.0625 8.875 C614.72064461 10.22719071 617.36387502 11.60542272 620 13 C621.02996094 13.54398438 622.05992187 14.08796875 623.12109375 14.6484375 C641.94527158 25.12050386 659.01626309 39.83758915 672 57 C672.73476563 57.93070313 673.46953125 58.86140625 674.2265625 59.8203125 C707.29433522 102.43342167 714.1861223 155.21781097 714.13371277 207.67353821 C714.13558637 209.48331775 714.13788924 211.29309689 714.14057809 213.10287541 C714.14663485 218.02291647 714.14656981 222.94294038 714.14538372 227.8629843 C714.14517814 233.19047337 714.1507134 238.51795717 714.15544128 243.84544373 C714.16371513 254.26416938 714.16649466 264.68288937 714.16705366 275.10161803 C714.16753046 283.58063158 714.16959335 292.05964327 714.17275429 300.53865623 C714.18155263 324.63391878 714.18617505 348.72917689 714.18542381 372.82444105 C714.18536388 374.76916378 714.18536388 374.76916378 714.18530273 376.75317383 C714.18524141 378.70030053 714.18524141 378.70030053 714.18517885 380.68676313 C714.18477281 401.70164566 714.19433398 422.71651025 714.2084411 443.73138759 C714.222847 465.36392614 714.22970895 486.99645595 714.22884732 508.62899941 C714.22851677 520.75193967 714.23120148 532.87486111 714.24202538 544.99779701 C714.25118612 555.32334159 714.25326037 565.64885883 714.24651595 575.97440574 C714.24327838 581.22965914 714.24309236 586.48486025 714.2518692 591.74010849 C714.35936992 660.59082269 708.08882452 726.21588466 657.6875 777.75 C646.26270974 789.06221342 633.04284834 798.25646816 619 806 C618.41557129 806.33306152 617.83114258 806.66612305 617.22900391 807.00927734 C580.31512626 827.89221777 535.93972753 831.17502307 494.40202332 831.13371277 C492.58826933 831.13558591 490.77451575 831.13788859 488.9607628 831.14057809 C484.02513022 831.14664058 479.08951472 831.14656911 474.15387928 831.14538372 C468.81139503 831.14517829 463.46891607 831.15071202 458.12643433 831.15544128 C447.67649098 831.16371835 437.22655329 831.16649481 426.77660694 831.16705366 C418.27277064 831.16753032 409.76893619 831.16959249 401.26510048 831.17275429 C377.1035266 831.18155358 352.94195714 831.18617491 328.78038164 831.18542381 C327.4800847 831.18538386 326.17978777 831.1853439 324.84008789 831.18530273 C323.53818499 831.18526185 322.2362821 831.18522097 320.8949276 831.18517885 C299.81787395 831.18477281 278.74083819 831.19433387 257.66378971 831.2084411 C235.971397 831.22284446 214.27901299 831.22970908 192.58661538 831.22884732 C180.4284806 831.22851667 168.27036457 831.23120548 156.11223412 831.24202538 C145.75662653 831.25118275 135.40104619 831.25326309 125.04543629 831.24651595 C119.77411167 831.24327669 114.50283918 831.24309871 109.2315197 831.2518692 C43.97232533 831.35340415 -21.51266333 826.62282163 -71 779 C-71.50096191 778.52481934 -72.00192383 778.04963867 -72.51806641 777.56005859 C-118.01482413 734.248675 -128.24767163 675.52627804 -129.9027915 615.29258084 C-130.24211606 601.50208965 -130.14033696 587.69959852 -130.13072467 573.90604603 C-130.12842718 569.01095074 -130.13197143 564.11585876 -130.13470459 559.22076416 C-130.13911536 549.67170041 -130.13820693 540.12264459 -130.13529195 530.57358056 C-130.13301943 522.80274123 -130.13273334 515.0319041 -130.13381577 507.26106453 C-130.133969 506.14863246 -130.13412223 505.0362004 -130.13428011 503.89005827 C-130.13459988 501.62911097 -130.1349241 499.36816367 -130.1352527 497.10721637 C-130.13809371 475.98325102 -130.13484213 454.85929003 -130.12945233 433.7353254 C-130.12498494 415.66803051 -130.12576239 397.60074204 -130.13037109 379.53344727 C-130.13574024 358.47561938 -130.13781979 337.41779529 -130.13475883 316.35996681 C-130.13444033 314.10835111 -130.13412596 311.85673541 -130.13381577 309.60511971 C-130.13366149 308.49771393 -130.13350721 307.39030815 -130.13334826 306.24934463 C-130.13249016 298.5006398 -130.13393064 290.75193741 -130.13629532 283.00323296 C-130.13911959 273.54195297 -130.1383002 264.08068127 -130.13301457 254.61940222 C-130.13041276 249.80584973 -130.12931165 244.99231097 -130.13266373 240.17875862 C-130.17943213 166.71964146 -126.9341796 95.50534889 -72.625 40.3125 C-59.46876329 27.27036265 -19.66768918 -6.72016715 0 0 Z " fill="#1F2528" transform="translate(220,113)"/>
<path d="M0 0 C-1.34578125 0.51046875 -1.34578125 0.51046875 -2.71875 1.03125 C-22.85426375 8.79499744 -40.6395213 18.82259131 -57 33 C-57.84046875 33.71800781 -58.6809375 34.43601563 -59.546875 35.17578125 C-97.26656655 68.15122588 -114.24684777 115.75975744 -117.78297776 164.68241465 C-118.68766406 178.51221384 -119.14830026 192.30128504 -119.13371277 206.15908813 C-119.13558769 207.88865914 -119.13789106 209.61822972 -119.14057809 211.34779966 C-119.14661877 216.03703929 -119.14657177 220.72626089 -119.14538372 225.4155035 C-119.14517771 230.49833378 -119.15071739 235.58115856 -119.15544128 240.66398621 C-119.1637066 250.60017254 -119.16649428 260.53635293 -119.16705366 270.47254242 C-119.16753094 278.56244912 -119.16959618 286.65235389 -119.17275429 294.74225998 C-119.18155085 317.74896492 -119.18617541 340.75566522 -119.18542381 363.76237185 C-119.18538386 364.99965633 -119.1853439 366.23694081 -119.18530273 367.51171875 C-119.18526185 368.75053898 -119.18522097 369.98935922 -119.18517885 371.26571946 C-119.18477302 391.31035169 -119.19432939 411.35496509 -119.2084411 431.39959188 C-119.22286304 452.05023717 -119.22970805 472.70087331 -119.22884732 493.35152376 C-119.22851728 504.91735721 -119.2311789 516.48317092 -119.24202538 528.04899979 C-119.2512075 537.90224167 -119.25324336 547.75545487 -119.24651595 557.60869922 C-119.24328868 562.61952971 -119.24305331 567.63030544 -119.2518692 572.64113045 C-119.28215603 591.05684062 -119.17952404 609.42401059 -118.0941925 627.81259155 C-118.05426043 628.49947999 -118.01432836 629.18636842 -117.97318622 629.89407165 C-115.51991324 670.84560045 -104.44937138 712.58762662 -77.203125 744.26953125 C-75 747 -75 747 -75 749 C-74.34 749 -73.68 749 -73 749 C-71.51953125 750.5390625 -71.51953125 750.5390625 -69.8125 752.625 C-66.8899337 756.08787267 -63.84169098 758.97510908 -60.28515625 761.7734375 C-59.86105469 762.17820312 -59.43695313 762.58296875 -59 763 C-59 763.66 -59 764.32 -59 765 C-58.34 765 -57.68 765 -57 765 C-57 765.66 -57 766.32 -57 767 C-55.35 767.66 -53.7 768.32 -52 769 C-52 769.66 -52 770.32 -52 771 C-51.27425781 771.25652344 -50.54851562 771.51304687 -49.80078125 771.77734375 C-46.85373942 773.06384876 -44.71958945 774.58866649 -42.1875 776.5625 C-20.04140934 792.87757211 5.8361537 801.48994056 32.6875 806.1875 C33.55745605 806.34259033 34.42741211 806.49768066 35.32373047 806.6574707 C59.78613889 810.64189458 84.45703493 810.29240838 109.15459025 810.26144934 C114.56366185 810.25687603 119.97272111 810.26393247 125.38179016 810.26940918 C135.94607963 810.27825316 146.51034051 810.27640365 157.07463104 810.2705839 C165.66797068 810.26604785 174.26130237 810.26546286 182.85464287 810.26763153 C184.69652096 810.26809123 184.69652096 810.26809123 186.57560871 810.26856022 C189.07090208 810.26919973 191.56619544 810.26984816 194.0614888 810.2705054 C217.40144149 810.276194 240.7413784 810.26967383 264.0813285 810.25890467 C284.06472879 810.24996938 304.04809377 810.25152388 324.03149414 810.26074219 C347.29545153 810.27146894 370.55939514 810.27564598 393.82335466 810.26951766 C396.3086274 810.26888063 398.79390015 810.26825189 401.2791729 810.26763153 C403.11288854 810.2671687 403.11288854 810.2671687 404.98364894 810.26669653 C413.55723382 810.26497688 422.13080988 810.26786884 430.70439339 810.27259064 C441.16611069 810.27822623 451.62779802 810.27662704 462.08951194 810.26602915 C467.41697084 810.26080844 472.74437995 810.25865353 478.07183838 810.26532745 C508.09583034 810.40610836 508.09583034 810.40610836 538 808 C538.8761575 807.89056328 539.75231501 807.78112657 540.65502274 807.66837358 C574.41026192 803.37740498 605.81516416 792.87655983 633 772 C633.81984375 771.40316406 634.6396875 770.80632813 635.484375 770.19140625 C672.42327574 742.36327465 693.41973238 698.99088165 700 654 C703.23179111 630.01164461 703.43786468 606.1454484 703.39217401 581.9811368 C703.3852813 576.56862094 703.39591442 571.15613201 703.40411377 565.74362183 C703.41734618 555.18494847 703.4146207 544.62633964 703.40587585 534.06766391 C703.39905792 525.47455749 703.39820018 516.88146895 703.4014473 508.2883606 C703.401907 507.05814936 703.40236669 505.82793812 703.40284032 504.56044775 C703.40379965 502.06009697 703.40477229 499.5597462 703.4057581 497.05939543 C703.41428125 473.69817846 703.40452639 450.336997 703.388357 426.97578585 C703.37495664 406.9978282 703.3772856 387.01995003 703.39111328 367.04199219 C703.40722372 343.75556168 703.41345757 320.46916217 703.40427649 297.18272686 C703.403321 294.69236438 703.40237788 292.20200189 703.4014473 289.7116394 C703.40075306 287.87441735 703.40075306 287.87441735 703.40004479 286.00007969 C703.39747124 277.43267282 703.4017903 268.86528587 703.40888596 260.29788208 C703.41736221 249.83508544 703.41489368 239.37235619 703.39904372 228.90956712 C703.39124246 223.58712327 703.38792733 218.26479111 703.39799118 212.94234848 C703.50496889 151.099617 697.60580549 89.39832343 652 43 C651.12988281 42.13117188 650.25976562 41.26234375 649.36328125 40.3671875 C648.05489663 39.05664026 646.75708863 37.73419646 645.5078125 36.3671875 C630.49789246 20.17004214 608.3393329 8.87456663 588 1 C595.14439576 -1.38146525 605.47586587 5.59625339 612.0625 8.875 C614.72064461 10.22719071 617.36387502 11.60542272 620 13 C621.02996094 13.54398438 622.05992187 14.08796875 623.12109375 14.6484375 C641.94527158 25.12050386 659.01626309 39.83758915 672 57 C672.73476563 57.93070313 673.46953125 58.86140625 674.2265625 59.8203125 C707.29433522 102.43342167 714.1861223 155.21781097 714.13371277 207.67353821 C714.13558637 209.48331775 714.13788924 211.29309689 714.14057809 213.10287541 C714.14663485 218.02291647 714.14656981 222.94294038 714.14538372 227.8629843 C714.14517814 233.19047337 714.1507134 238.51795717 714.15544128 243.84544373 C714.16371513 254.26416938 714.16649466 264.68288937 714.16705366 275.10161803 C714.16753046 283.58063158 714.16959335 292.05964327 714.17275429 300.53865623 C714.18155263 324.63391878 714.18617505 348.72917689 714.18542381 372.82444105 C714.18536388 374.76916378 714.18536388 374.76916378 714.18530273 376.75317383 C714.18524141 378.70030053 714.18524141 378.70030053 714.18517885 380.68676313 C714.18477281 401.70164566 714.19433398 422.71651025 714.2084411 443.73138759 C714.222847 465.36392614 714.22970895 486.99645595 714.22884732 508.62899941 C714.22851677 520.75193967 714.23120148 532.87486111 714.24202538 544.99779701 C714.25118612 555.32334159 714.25326037 565.64885883 714.24651595 575.97440574 C714.24327838 581.22965914 714.24309236 586.48486025 714.2518692 591.74010849 C714.35936992 660.59082269 708.08882452 726.21588466 657.6875 777.75 C646.26270974 789.06221342 633.04284834 798.25646816 619 806 C618.41557129 806.33306152 617.83114258 806.66612305 617.22900391 807.00927734 C580.31512626 827.89221777 535.93972753 831.17502307 494.40202332 831.13371277 C492.58826933 831.13558591 490.77451575 831.13788859 488.9607628 831.14057809 C484.02513022 831.14664058 479.08951472 831.14656911 474.15387928 831.14538372 C468.81139503 831.14517829 463.46891607 831.15071202 458.12643433 831.15544128 C447.67649098 831.16371835 437.22655329 831.16649481 426.77660694 831.16705366 C418.27277064 831.16753032 409.76893619 831.16959249 401.26510048 831.17275429 C377.1035266 831.18155358 352.94195714 831.18617491 328.78038164 831.18542381 C327.4800847 831.18538386 326.17978777 831.1853439 324.84008789 831.18530273 C323.53818499 831.18526185 322.2362821 831.18522097 320.8949276 831.18517885 C299.81787395 831.18477281 278.74083819 831.19433387 257.66378971 831.2084411 C235.971397 831.22284446 214.27901299 831.22970908 192.58661538 831.22884732 C180.4284806 831.22851667 168.27036457 831.23120548 156.11223412 831.24202538 C145.75662653 831.25118275 135.40104619 831.25326309 125.04543629 831.24651595 C119.77411167 831.24327669 114.50283918 831.24309871 109.2315197 831.2518692 C43.97232533 831.35340415 -21.51266333 826.62282163 -71 779 C-71.50096191 778.52481934 -72.00192383 778.04963867 -72.51806641 777.56005859 C-118.01482413 734.248675 -128.24767163 675.52627804 -129.9027915 615.29258084 C-130.24211606 601.50208965 -130.14033696 587.69959852 -130.13072467 573.90604603 C-130.12842718 569.01095074 -130.13197143 564.11585876 -130.13470459 559.22076416 C-130.13911536 549.67170041 -130.13820693 540.12264459 -130.13529195 530.57358056 C-130.13301943 522.80274123 -130.13273334 515.0319041 -130.13381577 507.26106453 C-130.133969 506.14863246 -130.13412223 505.0362004 -130.13428011 503.89005827 C-130.13459988 501.62911097 -130.1349241 499.36816367 -130.1352527 497.10721637 C-130.13809371 475.98325102 -130.13484213 454.85929003 -130.12945233 433.7353254 C-130.12498494 415.66803051 -130.12576239 397.60074204 -130.13037109 379.53344727 C-130.13574024 358.47561938 -130.13781979 337.41779529 -130.13475883 316.35996681 C-130.13444033 314.10835111 -130.13412596 311.85673541 -130.13381577 309.60511971 C-130.13366149 308.49771393 -130.13350721 307.39030815 -130.13334826 306.24934463 C-130.13249016 298.5006398 -130.13393064 290.75193741 -130.13629532 283.00323296 C-130.13911959 273.54195297 -130.1383002 264.08068127 -130.13301457 254.61940222 C-130.13041276 249.80584973 -130.12931165 244.99231097 -130.13266373 240.17875862 C-130.17943213 166.71964146 -126.9341796 95.50534889 -72.625 40.3125 C-59.46876329 27.27036265 -19.66768918 -6.72016715 0 0 Z " fill="#000000" transform="translate(220,113)"/>
<path d="M0 0 C15.60110736 12.28068388 27.06113004 28.46395837 30.5859375 48.296875 C33.07744562 70.57941935 28.62183308 91.18004111 14.5625 109 C4.3221587 120.65100056 -8.15644124 129.22143598 -23 134 C-23.90105469 134.29777344 -24.80210937 134.59554687 -25.73046875 134.90234375 C-46.36654747 140.6953956 -67.79400817 137.22016967 -86.3671875 127.140625 C-91.37111468 124.27901226 -95.75132296 120.88757791 -100 117 C-101.02287109 116.11441406 -101.02287109 116.11441406 -102.06640625 115.2109375 C-114.23565542 104.01808601 -123.03494438 86.84076544 -124.18920898 70.28637695 C-124.26739141 67.37564264 -124.27306241 64.47412875 -124.25 61.5625 C-124.25773438 60.58990234 -124.26546875 59.61730469 -124.2734375 58.61523438 C-124.22111268 39.03266914 -115.80456459 21.66246347 -102.49511719 7.46386719 C-74.91556497 -19.53923456 -31.25213069 -21.74951691 0 0 Z " fill="#1F2527" transform="translate(806,200)"/>
<path d="M0 0 C0 0.33 0 0.66 0 1 C-0.65782471 1.09498779 -1.31564941 1.18997559 -1.9934082 1.2878418 C-20.24599356 3.96247492 -37.90371015 7.13317687 -55.01586914 14.20849609 C-59.69418379 16.10193874 -59.69418379 16.10193874 -63 15 C-61.06532058 14.16013916 -59.12714871 13.32831973 -57.1875 12.5 C-56.10855469 12.0359375 -55.02960938 11.571875 -53.91796875 11.09375 C-51 10 -51 10 -48 10 C-48 9.34 -48 8.68 -48 8 C-13.58663561 -0.55205291 -13.58663561 -0.55205291 0 0 Z " fill="#D9D9D9" transform="translate(268,103)"/>
<path d="M0 0 C7.00748303 -0.19525495 13.53554308 0.50373413 20.4375 1.6875 C21.47777344 1.86249023 22.51804687 2.03748047 23.58984375 2.21777344 C32.92050571 3.85578487 41.9533613 6.21290424 51 9 C50.67 9.66 50.34 10.32 50 11 C45.39405177 9.99548667 40.80262173 8.96530623 36.23046875 7.81640625 C24.22172635 4.81688505 12.26930971 2.62097217 0 1 C0 0.67 0 0.34 0 0 Z " fill="#BEBEBE" transform="translate(757,103)"/>
<path d="M0 0 C0.66 0.33 1.32 0.66 2 1 C-6.25 9.25 -14.5 17.5 -23 26 C-23 22.48401315 -22.56814673 22.16359981 -20.25390625 19.70703125 C-19.66754395 19.07998291 -19.08118164 18.45293457 -18.47705078 17.80688477 C-17.84524902 17.14873779 -17.21344727 16.49059082 -16.5625 15.8125 C-15.92812012 15.14210693 -15.29374023 14.47171387 -14.64013672 13.78100586 C-9.98553281 8.90860473 -5.1934569 4.30040214 0 0 Z " fill="#F2E6AD" transform="translate(166,142)"/>
<path d="M0 0 C0 0.66 0 1.32 0 2 C-3.3 2.66 -6.6 3.32 -10 4 C-10.33 3.34 -10.66 2.68 -11 2 C-7.12315913 0.80712589 -4.08378077 0 0 0 Z " fill="#969696" transform="translate(231,109)"/>
<path d="M0 0 C6.625 0.75 6.625 0.75 10 3 C6.18510326 4.46726798 3.70988378 3.43336419 0 2 C0 1.34 0 0.68 0 0 Z " fill="#858585" transform="translate(798,110)"/>
</svg>
